<?xml version="1.0" encoding="UTF-8" standalone="no"?>
<svg
   xmlns:dc="http://purl.org/dc/elements/1.1/"
   xmlns:cc="http://creativecommons.org/ns#"
   xmlns:rdf="http://www.w3.org/1999/02/22-rdf-syntax-ns#"
   xmlns:svg="http://www.w3.org/2000/svg"
   xmlns="http://www.w3.org/2000/svg"
   xmlns:sodipodi="http://sodipodi.sourceforge.net/DTD/sodipodi-0.dtd"
   xmlns:inkscape="http://www.inkscape.org/namespaces/inkscape"
   enable-background="new 0 0 20 20"
   height="18px"
   viewBox="0 0 20 20"
   width="18px"
   fill="#000000"
   version="1.1"
   id="svg16"
   sodipodi:docname="less_time_black_18dp.svg"
   inkscape:version="1.0.2-2 (e86c870879, 2021-01-15)">
  <metadata
     id="metadata22">
    <rdf:RDF>
      <cc:Work
         rdf:about="">
        <dc:format>image/svg+xml</dc:format>
        <dc:type
           rdf:resource="http://purl.org/dc/dcmitype/StillImage" />
        <dc:title></dc:title>
      </cc:Work>
    </rdf:RDF>
  </metadata>
  <defs
     id="defs20" />
  <sodipodi:namedview
     pagecolor="#ffffff"
     bordercolor="#666666"
     borderopacity="1"
     objecttolerance="10"
     gridtolerance="10"
     guidetolerance="10"
     inkscape:pageopacity="0"
     inkscape:pageshadow="2"
     inkscape:window-width="1920"
     inkscape:window-height="1017"
     id="namedview18"
     showgrid="false"
     inkscape:zoom="94.444444"
     inkscape:cx="10.855011"
     inkscape:cy="7.4710726"
     inkscape:window-x="-8"
     inkscape:window-y="-8"
     inkscape:window-maximized="1"
     inkscape:current-layer="svg16" />
  <g
     id="g4">
    <rect
       fill="none"
       height="20"
       width="20"
       x="0"
       id="rect2" />
  </g>
  <g
     id="g14">
    <g
       id="g12">
      <polygon
         points="8.5,8.05 8.5,12.05 11.67,13.95 12.17,13.13 9.5,11.55 9.5,8.05"
         id="polygon6" />
      <path
         d="M13.9,10c0.07,0.32,0.1,0.66,0.1,1c0,2.76-2.24,5-5,5s-5-2.24-5-5s2.24-5,5-5c0.71,0,1.39,0.15,2,0.42V5.35 C10.37,5.13,9.7,5,9,5c-3.31,0-6,2.69-6,6s2.69,6,6,6s6-2.69,6-6c0-0.34-0.04-0.67-0.09-1H13.9z"
         id="path8" />
    </g>
  </g>
  <rect
     style="fill:#000000;stroke-width:77.7778"
     id="rect24"
     width="5"
     height="0.99999994"
     x="12"
     y="6" />
</svg>
